<svg width="74" height="100" viewBox="0 0 74 100" fill="none" xmlns="http://www.w3.org/2000/svg">
<path d="M41.832 99.28C32.744 99.28 25.512 97.424 20.136 93.712C14.76 89.9573 11.4533 84.8587 10.216 78.416H7.976L9.768 68.816C10.9627 75.7707 14.2693 81.1893 19.688 85.072C25.1067 88.9547 32.0187 90.896 40.424 90.896C47.9333 90.896 53.672 89.36 57.64 86.288C61.608 83.1733 63.592 78.7147 63.592 72.912C63.592 69.072 62.696 65.872 60.904 63.312C59.112 60.7093 56.2107 58.5973 52.2 56.976C48.232 55.312 42.92 53.9893 36.264 53.008C28.0293 51.8133 21.2667 50.0213 15.976 47.632C10.728 45.2427 6.824 42.192 4.264 38.48C1.704 34.768 0.424 30.352 0.424 25.232C0.424 17.424 3.09067 11.344 8.424 6.992C13.8 2.64 21.1813 0.463997 30.568 0.463997C36.456 0.463997 41.448 1.31733 45.544 3.02399C49.6827 4.688 52.9467 7.09866 55.336 10.256C57.7253 13.4133 59.2827 17.168 60.008 21.52H62.184L60.328 30.928C59.2187 24.016 56.1253 18.6187 51.048 14.736C46.0133 10.8107 39.6133 8.848 31.848 8.848C25.1493 8.848 19.8587 10.256 15.976 13.072C12.0933 15.8453 10.152 19.7493 10.152 24.784C10.152 28.0693 11.0693 30.9067 12.904 33.296C14.7387 35.6427 17.6827 37.648 21.736 39.312C25.7893 40.9333 31.1227 42.3413 37.736 43.536C46.2693 44.8587 53.1387 46.7147 58.344 49.104C63.5493 51.4933 67.3467 54.5867 69.736 58.384C72.168 62.1387 73.384 66.768 73.384 72.272C73.384 80.8053 70.632 87.44 65.128 92.176C59.624 96.912 51.8587 99.28 41.832 99.28ZM0.168 98V68.816H9.768V98H0.168ZM60.328 30.928V1.744H69.928V30.928H60.328Z" fill="#052D83"/>
</svg>
